<svg version="1.1" id="Layer_1" xmlns="http://www.w3.org/2000/svg" xmlns:xlink="http://www.w3.org/1999/xlink" x="0px" y="0px"
	 width="100%" viewBox="0 0 696 697" enable-background="new 0 0 696 697" xml:space="preserve">
<path fill="#FFFFFE" opacity="0.000000" stroke="none" 
	d="
M697.000000,254.000000 
	C697.000000,402.333344 697.000000,550.166687 697.000000,698.000000 
	C465.000000,698.000000 233.000000,698.000000 1.000000,698.000000 
	C1.000000,465.666656 1.000000,233.333328 1.000000,1.000000 
	C233.000000,1.000000 465.000000,1.000000 697.000000,1.000000 
	C697.000000,85.166664 697.000000,169.333328 697.000000,254.000000 
M379.581787,224.959930 
	C370.270782,220.523483 360.895935,216.215012 351.669525,211.609100 
	C344.596375,208.078125 337.872803,208.085693 330.675873,211.521179 
	C272.875092,239.112518 214.982376,266.511200 157.165771,294.069489 
	C139.176453,302.644135 121.334473,311.527863 103.987869,319.995361 
	C103.987869,388.561737 104.111977,456.539124 103.850067,524.515015 
	C103.812088,534.372803 107.635948,540.733398 115.862198,545.661560 
	C189.908920,590.021240 263.876251,634.513489 337.805115,679.069336 
	C340.505615,680.696899 342.300842,680.482727 344.855408,678.941101 
	C419.059784,634.157593 493.311218,589.452087 567.561096,544.743958 
	C574.524475,540.551086 578.095581,534.737549 578.078247,526.309998 
	C577.947693,462.831329 577.910767,399.351990 578.114563,335.873749 
	C578.147400,325.637329 574.085327,318.910248 564.973389,314.518250 
	C503.375092,284.827606 441.831329,255.023834 379.581787,224.959930 
M539.828796,270.666229 
	C552.312988,276.105865 564.797180,281.545532 578.723755,287.613647 
	C577.618408,281.942596 576.761902,277.548309 575.728271,272.245209 
	C575.868286,271.795959 576.914734,269.951965 576.950989,268.088287 
	C577.317993,249.266251 577.681885,230.441483 577.736877,211.616577 
	C577.895630,157.297455 577.907532,102.977913 577.990479,48.658554 
	C577.996704,44.568443 578.302734,40.469627 578.117371,36.390858 
	C577.914795,31.934177 575.736694,30.478289 571.482666,31.774746 
	C569.268677,32.449478 567.129761,33.429840 565.040222,34.443916 
	C552.911621,40.330204 540.924561,46.522831 528.670593,52.133419 
	C504.664825,63.124676 481.760590,76.673325 456.428375,83.803787 
	C453.610657,81.721138 451.155182,79.786697 448.582031,78.024017 
	C433.252319,67.522827 417.917389,57.028946 402.541443,46.595619 
	C387.410706,36.328632 372.124268,26.286711 357.133606,15.820291 
	C352.623108,12.671066 349.046844,8.208670 344.677521,4.818359 
	C343.217133,3.685181 340.219696,3.145823 338.634552,3.875878 
	C336.064697,5.059412 334.236481,7.741700 331.825317,9.398489 
	C301.905945,29.957083 271.668427,50.066223 242.098450,71.113846 
	C227.836395,81.265404 214.525864,82.401802 198.882355,74.340927 
	C171.805756,60.388718 144.130569,47.594498 116.639282,34.455132 
	C113.006691,32.718948 108.979927,31.807491 104.820496,30.408020 
	C104.820496,116.951912 104.820496,202.478683 104.820496,289.270477 
	C113.077423,283.658447 120.463448,278.629883 127.860863,273.618195 
	C129.226929,272.692688 130.546539,271.618317 132.044037,270.979248 
	C151.499603,262.676605 171.121429,254.748123 190.420349,246.098373 
	C208.817444,237.852844 226.895126,228.893341 245.094955,220.209412 
	C262.954407,211.687897 280.801910,203.141129 298.623169,194.540146 
	C300.816406,193.481628 302.697968,191.744980 304.925659,190.796204 
	C312.379395,187.621719 320.129852,185.078949 327.380402,181.509644 
	C335.538452,177.493622 343.451233,177.477997 351.470490,181.121201 
	C360.564972,185.252899 369.532410,189.664200 378.554565,193.955048 
	C432.086823,219.414612 485.618927,244.874496 539.828796,270.666229 
z"/>
<path fill="#000000" opacity="1.000000" stroke="none" 
	d="
M379.925842,225.108292 
	C441.831329,255.023834 503.375092,284.827606 564.973389,314.518250 
	C574.085327,318.910248 578.147400,325.637329 578.114563,335.873749 
	C577.910767,399.351990 577.947693,462.831329 578.078247,526.309998 
	C578.095581,534.737549 574.524475,540.551086 567.561096,544.743958 
	C493.311218,589.452087 419.059784,634.157593 344.855408,678.941101 
	C342.300842,680.482727 340.505615,680.696899 337.805115,679.069336 
	C263.876251,634.513489 189.908920,590.021240 115.862198,545.661560 
	C107.635948,540.733398 103.812088,534.372803 103.850067,524.515015 
	C104.111977,456.539124 103.987869,388.561737 103.987869,319.995361 
	C121.334473,311.527863 139.176453,302.644135 157.165771,294.069489 
	C214.982376,266.511200 272.875092,239.112518 330.675873,211.521179 
	C337.872803,208.085693 344.596375,208.078125 351.669525,211.609100 
	C360.895935,216.215012 370.270782,220.523483 379.925842,225.108292 
M159.747284,328.255890 
	C154.168411,330.780151 148.666397,333.495667 142.989944,335.777130 
	C136.798355,338.265625 133.996094,342.623016 134.024261,349.226715 
	C134.251480,402.518890 134.407730,455.811371 134.607635,509.103668 
	C134.640228,517.790283 138.369736,524.377563 145.971741,528.731995 
	C148.418121,530.133301 150.720505,531.786194 153.168900,533.183655 
	C167.214722,541.200439 181.284653,549.174988 195.716919,557.374390 
	C195.716919,474.573608 195.716919,392.484314 195.716919,310.199005 
	C183.765289,316.244507 172.117523,322.136322 159.747284,328.255890 
M547.938354,419.500000 
	C547.772278,398.004150 547.614746,376.508240 547.426758,355.012573 
	C547.407837,352.850739 547.297729,350.680634 547.069702,348.531372 
	C546.403320,342.249512 544.069946,337.352966 537.720886,334.513489 
	C521.912598,327.443634 506.300446,319.935211 490.298126,312.457336 
	C490.298126,393.909515 490.298126,474.445129 490.298126,555.450745 
	C492.003052,554.678528 493.342957,554.113770 494.646515,553.474854 
	C512.893860,544.531067 528.060425,531.205322 543.972534,518.922607 
	C546.932739,516.637634 547.940247,514.175049 547.926514,510.485840 
	C547.814575,480.490997 547.909180,450.495392 547.938354,419.500000 
M247.089874,486.777161 
	C251.037689,488.940125 254.752899,488.159271 258.405426,485.961090 
	C265.375214,481.766449 272.310760,477.509674 279.370026,473.470062 
	C291.322266,466.630432 303.584442,460.298462 315.242828,452.997040 
	C319.495422,450.333710 323.807343,446.079681 325.623566,441.559418 
	C329.503510,431.903168 326.737335,422.694946 320.110657,414.699921 
	C314.052734,407.391174 305.540497,403.879456 297.320740,399.943756 
	C284.581268,393.843872 282.100952,389.042053 282.444031,374.935486 
	C282.876862,357.139771 282.548492,339.325531 282.548492,321.263702 
	C263.105286,316.484741 243.692505,311.713257 223.782867,306.819672 
	C223.782867,311.471191 223.798828,315.604248 223.780396,319.737152 
	C223.582169,364.221588 223.351089,408.705933 223.195663,453.190521 
	C223.156891,464.285034 225.167877,474.440186 236.362213,480.176392 
	C239.862183,481.969849 243.109818,484.255829 247.089874,486.777161 
M458.401855,344.500214 
	C458.401855,332.065308 458.401855,319.630402 458.401855,306.814606 
	C439.596558,311.427856 421.554993,315.814911 403.554108,320.362762 
	C402.431366,320.646423 400.848419,322.149323 400.794830,323.155029 
	C400.238403,333.599762 398.895294,344.156006 399.845154,354.490631 
	C401.176056,368.971344 401.641602,382.763062 391.412689,394.574707 
	C385.179016,401.773010 377.291504,406.657623 368.556732,410.102203 
	C361.889862,412.731354 358.068542,417.381256 356.855438,424.295929 
	C356.254669,427.720337 355.484680,431.172577 355.426178,434.623016 
	C355.292114,442.530884 357.569214,448.717621 365.518158,452.879089 
	C384.476593,462.804352 402.859589,473.826630 421.781525,483.825745 
	C425.542267,485.813080 431.132019,486.688171 435.063232,485.462250 
	C441.202454,483.547791 446.957703,479.840973 452.285797,476.061920 
	C456.627899,472.982086 458.225677,468.124176 458.215027,462.481201 
	C458.141388,423.487793 458.311157,384.493958 458.401855,344.500214 
M296.546631,292.966583 
	C301.981659,294.310059 307.416718,295.653564 312.464874,296.901398 
	C312.464874,316.661072 312.652466,335.948151 312.385406,355.228943 
	C312.252655,364.812897 314.792084,372.917389 322.574158,378.886078 
	C332.073547,386.171875 342.211945,389.043427 353.617645,383.278534 
	C364.559174,377.748230 369.350464,369.035583 369.091400,356.709015 
	C368.675323,336.914001 368.979828,317.103821 368.979828,297.048248 
	C388.391052,292.410828 407.632050,287.814056 428.225403,282.894196 
	C402.146729,270.245544 377.525787,258.000671 352.613831,246.379593 
	C343.442566,242.101318 333.871216,243.264709 324.764282,247.922058 
	C310.592896,255.169403 296.351105,262.279297 282.123016,269.415283 
	C273.468475,273.755920 264.783722,278.036194 255.094025,282.849518 
	C269.383118,286.370636 282.550476,289.615387 296.546631,292.966583 
M385.061798,618.567627 
	C405.996033,606.370544 426.899231,594.119751 447.881989,582.006714 
	C454.887787,577.962402 459.138245,572.711670 458.889832,564.058899 
	C458.411896,547.412537 458.419159,530.752197 458.230621,514.097656 
	C458.210968,512.360779 458.227966,510.623596 458.227966,508.048126 
	C448.681793,513.976135 439.994324,519.414185 431.264099,524.782776 
	C414.833923,534.886475 398.391693,544.970764 381.924103,555.013306 
	C378.557953,557.066162 375.225159,559.323853 371.588928,560.755371 
	C360.847046,564.984497 356.062469,571.157959 356.004425,582.488464 
	C355.919067,599.147339 356.088257,615.807556 356.164368,632.467102 
	C356.166412,632.912842 356.345276,633.357727 356.672516,634.869202 
	C366.169647,629.421021 375.300049,624.183289 385.061798,618.567627 
M227.512451,576.808899 
	C260.086548,596.160339 292.660645,615.511841 325.994934,635.314941 
	C325.994934,617.226990 326.003937,600.262695 325.991669,583.298401 
	C325.984009,572.701782 320.988342,565.473694 311.407074,561.008057 
	C305.723114,558.358826 300.147644,555.386536 294.820099,552.081299 
	C282.982697,544.737427 271.445618,536.907410 259.572754,529.623291 
	C248.044952,522.550903 236.250732,515.912659 224.022293,508.761444 
	C224.022293,530.442261 223.969376,551.382751 224.146790,572.321289 
	C224.158066,573.652527 225.958771,574.968567 227.512451,576.808899 
M322.416138,483.932831 
	C309.453918,491.548431 296.491730,499.164032 283.053375,507.059387 
	C285.104126,508.409485 286.436279,509.314423 287.795380,510.176910 
	C300.670349,518.347351 313.541290,526.524170 326.430664,534.671814 
	C337.615662,541.742004 348.315369,541.736816 358.971924,533.166199 
	C364.765808,528.506470 371.178131,524.588440 377.464691,520.575806 
	C384.478607,516.098938 391.666290,511.894287 399.644806,507.044434 
	C382.190369,497.174011 365.532227,487.672119 348.757812,478.380096 
	C346.840790,477.318176 344.290039,477.257141 342.003601,477.031830 
	C334.722412,476.314453 329.161469,480.759003 322.416138,483.932831 
z"/>
<path fill="#8FBE2B" opacity="1.000000" stroke="none" 
	d="
M539.489929,270.500244 
	C485.618927,244.874496 432.086823,219.414612 378.554565,193.955048 
	C369.532410,189.664200 360.564972,185.252899 351.470490,181.121201 
	C343.451233,177.477997 335.538452,177.493622 327.380402,181.509644 
	C320.129852,185.078949 312.379395,187.621719 304.925659,190.796204 
	C302.697968,191.744980 300.816406,193.481628 298.623169,194.540146 
	C280.801910,203.141129 262.954407,211.687897 245.094955,220.209412 
	C226.895126,228.893341 208.817444,237.852844 190.420349,246.098373 
	C171.121429,254.748123 151.499603,262.676605 132.044037,270.979248 
	C130.546539,271.618317 129.226929,272.692688 127.860863,273.618195 
	C120.463448,278.629883 113.077423,283.658447 104.820496,289.270477 
	C104.820496,202.478683 104.820496,116.951912 104.820496,30.408020 
	C108.979927,31.807491 113.006691,32.718948 116.639282,34.455132 
	C144.130569,47.594498 171.805756,60.388718 198.882355,74.340927 
	C214.525864,82.401802 227.836395,81.265404 242.098450,71.113846 
	C271.668427,50.066223 301.905945,29.957083 331.825317,9.398489 
	C334.236481,7.741700 336.064697,5.059412 338.634552,3.875878 
	C340.219696,3.145823 343.217133,3.685181 344.677521,4.818359 
	C349.046844,8.208670 352.623108,12.671066 357.133606,15.820291 
	C372.124268,26.286711 387.410706,36.328632 402.541443,46.595619 
	C417.917389,57.028946 433.252319,67.522827 448.582031,78.024017 
	C451.155182,79.786697 453.610657,81.721138 456.428375,83.803787 
	C481.760590,76.673325 504.664825,63.124676 528.670593,52.133419 
	C540.924561,46.522831 552.911621,40.330204 565.040222,34.443916 
	C567.129761,33.429840 569.268677,32.449478 571.482666,31.774746 
	C575.736694,30.478289 577.914795,31.934177 578.117371,36.390858 
	C578.302734,40.469627 577.996704,44.568443 577.990479,48.658554 
	C577.907532,102.977913 577.895630,157.297455 577.736877,211.616577 
	C577.681885,230.441483 577.317993,249.266251 576.950989,268.088287 
	C576.914734,269.951965 575.868286,271.795959 575.728271,272.245209 
	C576.761902,277.548309 577.618408,281.942596 578.723755,287.613647 
	C564.797180,281.545532 552.312988,276.105865 539.489929,270.500244 
M522.296936,128.484573 
	C522.647644,128.604599 522.998413,128.724640 523.936157,128.942139 
	C524.267517,129.149170 524.598816,129.356201 525.109375,130.102417 
	C525.764648,130.380783 526.419922,130.659149 527.016785,130.996185 
	C527.016785,130.996185 527.036316,130.915756 527.332214,131.453415 
	C527.898743,131.627548 528.465271,131.801697 529.004150,132.003220 
	C529.004150,132.003220 529.014832,131.966568 529.309814,132.468735 
	C529.667603,132.589279 530.025330,132.709824 531.043640,132.982971 
	C536.151306,135.994522 541.258972,139.006073 546.714966,142.223022 
	C547.030273,140.955841 547.309570,140.356613 547.309448,139.757431 
	C547.304443,120.601746 547.259277,101.446068 547.253967,82.290382 
	C547.252686,77.596924 544.824463,78.295265 541.671631,79.407547 
	C528.518494,84.047722 515.309021,88.528076 501.213745,92.976112 
	C500.222321,92.968170 499.228180,93.005325 498.239929,92.945045 
	C491.424500,92.529312 490.793488,94.553017 490.228607,100.835999 
	C489.483917,109.119339 491.882812,111.669502 500.820587,114.221199 
	C500.820587,114.221199 500.930450,114.480553 501.180634,114.734116 
	C501.363464,114.894775 501.572479,115.006584 501.940552,115.082283 
	C501.940552,115.082283 501.898895,115.209122 502.020599,115.876900 
	C505.947571,122.976425 511.930298,126.721069 520.013184,126.995224 
	C520.013184,126.995224 520.036621,126.916054 520.325928,127.452103 
	C520.885559,127.633469 521.445190,127.814827 522.000000,128.000000 
	C522.000000,128.000000 522.002258,127.994843 522.296936,128.484573 
M492.028015,140.933167 
	C492.028015,140.933167 492.081085,140.875778 492.056427,140.182571 
	C488.543762,137.031235 485.031128,133.879913 481.518463,130.728577 
	C482.227570,131.923325 482.936676,133.118057 483.645813,134.312805 
	C482.086395,134.217056 480.526978,134.121307 478.293762,133.838486 
	C471.372528,129.427444 464.451294,125.016403 457.048798,120.298637 
	C453.276337,121.695389 448.117157,123.272423 443.252563,125.494370 
	C437.677734,128.040710 432.439056,131.320724 426.876190,133.897293 
	C425.723114,134.431351 423.787903,133.276764 422.087769,132.870483 
	C422.248871,137.032272 418.719788,137.002884 414.933441,137.093842 
	C412.877960,137.143219 410.472565,137.557556 408.897461,138.719116 
	C407.112061,140.035751 406.470734,142.973511 404.650085,144.160416 
	C397.293274,148.956299 389.639893,153.294739 382.181488,157.939331 
	C380.771912,158.817108 379.752106,160.320755 378.872650,161.211395 
	C435.285034,186.984436 490.876404,212.382401 547.322083,238.170670 
	C547.322083,235.444565 547.323914,233.673569 547.321777,231.902573 
	C547.303589,216.919434 547.078613,201.932327 547.366760,186.955093 
	C547.483154,180.904907 543.618713,176.463425 540.071167,173.944321 
	C525.892090,163.875702 510.865204,155.003372 496.205994,145.604218 
	C494.906097,144.770737 493.996674,143.328247 492.828339,141.660736 
	C492.585541,141.428452 492.342712,141.196167 492.028015,140.933167 
M158.286301,164.808746 
	C154.241821,167.808243 150.197342,170.807724 145.848877,174.032669 
	C145.217499,172.324188 144.829666,171.274780 144.428497,170.232071 
	C143.323273,176.260239 137.160019,181.470840 133.563400,179.889328 
	C133.905167,184.456589 134.554779,189.197754 134.558151,193.939392 
	C134.567383,206.923096 134.286026,219.906830 134.174118,232.891037 
	C134.160706,234.448196 134.482773,236.008270 134.678162,237.836685 
	C136.100662,237.327988 136.901672,237.107086 137.647354,236.765457 
	C168.644333,222.564331 199.672729,208.430984 230.617035,194.115921 
	C253.718887,183.428833 276.722107,172.528030 299.728729,161.636887 
	C301.288269,160.898605 302.507111,159.440598 303.884399,158.317307 
	C302.498077,157.132980 301.290161,155.559402 299.695892,154.828857 
	C290.776550,150.741730 281.704926,146.986069 272.796631,142.875916 
	C258.752197,136.396011 244.423309,130.387863 230.974472,122.828529 
	C225.074661,119.512344 222.237106,120.560921 217.654449,124.226135 
	C213.275116,127.728760 207.706207,129.744049 202.721207,132.380829 
	C200.570892,134.458588 198.372360,136.833649 195.903503,138.883026 
	C194.170944,140.321198 191.976837,141.188980 190.151398,142.532364 
	C185.301437,146.101593 180.670074,149.981003 175.707764,153.380905 
	C170.181473,157.167206 163.381241,159.020935 158.286301,164.808746 
M284.607971,78.212036 
	C280.050049,80.769455 275.412262,83.196739 270.960663,85.927444 
	C267.684723,87.936958 264.652161,90.343292 261.098480,92.865723 
	C261.469208,96.735291 252.029083,97.620514 255.425827,103.558937 
	C257.986084,104.282051 260.249176,104.626083 262.257416,105.533920 
	C283.179321,114.991882 304.259094,124.134315 324.873260,134.225906 
	C336.088226,139.716141 346.345612,139.660507 357.237610,134.029846 
	C369.355042,127.765656 381.675385,121.883308 394.014404,116.061440 
	C404.915405,110.918076 415.963531,106.086464 426.928192,101.125565 
	C424.280762,93.589279 423.764008,93.270729 418.810455,90.319496 
	C411.938080,86.225044 405.314453,81.715683 398.500366,77.520340 
	C382.393341,67.603432 366.377136,57.526508 350.045685,47.991379 
	C340.751038,42.564693 327.244446,45.273392 319.765778,52.651123 
	C317.349670,55.034607 313.973541,56.444939 311.036560,58.300446 
	C309.166046,59.864616 307.762115,62.366894 305.654694,63.905846 
	C299.006561,68.760674 292.094727,73.254372 284.607971,78.212036 
M186.660278,105.177025 
	C187.979401,104.263077 189.298538,103.349129 191.401245,101.892281 
	C172.466476,93.773453 154.106842,85.901230 134.843719,77.641602 
	C134.843719,99.541557 134.843719,120.585846 134.843719,142.300049 
	C152.311874,129.788834 169.199860,117.693161 186.660278,105.177025 
M114.000557,61.500290 
	C114.000557,130.927048 114.000557,200.353821 114.000557,269.780579 
	C114.312965,269.779846 114.625381,269.779114 114.937790,269.778381 
	C114.937790,193.759796 114.937790,117.741211 114.937790,41.722622 
	C114.625381,41.719353 114.312973,41.716080 114.000565,41.712811 
	C114.000565,47.975418 114.000565,54.238026 114.000557,61.500290 
z"/>
<path fill="#FEFEFE" opacity="0.000000" stroke="none" 
	d="
M160.108521,328.141998 
	C172.117523,322.136322 183.765289,316.244507 195.716919,310.199005 
	C195.716919,392.484314 195.716919,474.573608 195.716919,557.374390 
	C181.284653,549.174988 167.214722,541.200439 153.168900,533.183655 
	C150.720505,531.786194 148.418121,530.133301 145.971741,528.731995 
	C138.369736,524.377563 134.640228,517.790283 134.607635,509.103668 
	C134.407730,455.811371 134.251480,402.518890 134.024261,349.226715 
	C133.996094,342.623016 136.798355,338.265625 142.989944,335.777130 
	C148.666397,333.495667 154.168411,330.780151 160.108521,328.141998 
z"/>
<path fill="#FEFEFE" opacity="0.000000" stroke="none" 
	d="
M547.939636,420.000000 
	C547.909180,450.495392 547.814575,480.490997 547.926514,510.485840 
	C547.940247,514.175049 546.932739,516.637634 543.972534,518.922607 
	C528.060425,531.205322 512.893860,544.531067 494.646515,553.474854 
	C493.342957,554.113770 492.003052,554.678528 490.298126,555.450745 
	C490.298126,474.445129 490.298126,393.909515 490.298126,312.457336 
	C506.300446,319.935211 521.912598,327.443634 537.720886,334.513489 
	C544.069946,337.352966 546.403320,342.249512 547.069702,348.531372 
	C547.297729,350.680634 547.407837,352.850739 547.426758,355.012573 
	C547.614746,376.508240 547.772278,398.004150 547.939636,420.000000 
z"/>
<path fill="#FEFEFE" opacity="0.000000" stroke="none" 
	d="
M246.781433,486.546753 
	C243.109818,484.255829 239.862183,481.969849 236.362213,480.176392 
	C225.167877,474.440186 223.156891,464.285034 223.195663,453.190521 
	C223.351089,408.705933 223.582169,364.221588 223.780396,319.737152 
	C223.798828,315.604248 223.782867,311.471191 223.782867,306.819672 
	C243.692505,311.713257 263.105286,316.484741 282.548492,321.263702 
	C282.548492,339.325531 282.876862,357.139771 282.444031,374.935486 
	C282.100952,389.042053 284.581268,393.843872 297.320740,399.943756 
	C305.540497,403.879456 314.052734,407.391174 320.110657,414.699921 
	C326.737335,422.694946 329.503510,431.903168 325.623566,441.559418 
	C323.807343,446.079681 319.495422,450.333710 315.242828,452.997040 
	C303.584442,460.298462 291.322266,466.630432 279.370026,473.470062 
	C272.310760,477.509674 265.375214,481.766449 258.405426,485.961090 
	C254.752899,488.159271 251.037689,488.940125 246.781433,486.546753 
z"/>
<path fill="#FEFEFE" opacity="0.000000" stroke="none" 
	d="
M458.402283,345.000244 
	C458.311157,384.493958 458.141388,423.487793 458.215027,462.481201 
	C458.225677,468.124176 456.627899,472.982086 452.285797,476.061920 
	C446.957703,479.840973 441.202454,483.547791 435.063232,485.462250 
	C431.132019,486.688171 425.542267,485.813080 421.781525,483.825745 
	C402.859589,473.826630 384.476593,462.804352 365.518158,452.879089 
	C357.569214,448.717621 355.292114,442.530884 355.426178,434.623016 
	C355.484680,431.172577 356.254669,427.720337 356.855438,424.295929 
	C358.068542,417.381256 361.889862,412.731354 368.556732,410.102203 
	C377.291504,406.657623 385.179016,401.773010 391.412689,394.574707 
	C401.641602,382.763062 401.176056,368.971344 399.845154,354.490631 
	C398.895294,344.156006 400.238403,333.599762 400.794830,323.155029 
	C400.848419,322.149323 402.431366,320.646423 403.554108,320.362762 
	C421.554993,315.814911 439.596558,311.427856 458.401855,306.814606 
	C458.401855,319.630402 458.401855,332.065308 458.402283,345.000244 
z"/>
<path fill="#FEFEFE" opacity="0.000000" stroke="none" 
	d="
M296.132263,292.913330 
	C282.550476,289.615387 269.383118,286.370636 255.094025,282.849518 
	C264.783722,278.036194 273.468475,273.755920 282.123016,269.415283 
	C296.351105,262.279297 310.592896,255.169403 324.764282,247.922058 
	C333.871216,243.264709 343.442566,242.101318 352.613831,246.379593 
	C377.525787,258.000671 402.146729,270.245544 428.225403,282.894196 
	C407.632050,287.814056 388.391052,292.410828 368.979828,297.048248 
	C368.979828,317.103821 368.675323,336.914001 369.091400,356.709015 
	C369.350464,369.035583 364.559174,377.748230 353.617645,383.278534 
	C342.211945,389.043427 332.073547,386.171875 322.574158,378.886078 
	C314.792084,372.917389 312.252655,364.812897 312.385406,355.228943 
	C312.652466,335.948151 312.464874,316.661072 312.464874,296.901398 
	C307.416718,295.653564 301.981659,294.310059 296.132263,292.913330 
z"/>
<path fill="#FDFDFD" opacity="0.000000" stroke="none" 
	d="
M384.746155,618.756592 
	C375.300049,624.183289 366.169647,629.421021 356.672516,634.869202 
	C356.345276,633.357727 356.166412,632.912842 356.164368,632.467102 
	C356.088257,615.807556 355.919067,599.147339 356.004425,582.488464 
	C356.062469,571.157959 360.847046,564.984497 371.588928,560.755371 
	C375.225159,559.323853 378.557953,557.066162 381.924103,555.013306 
	C398.391693,544.970764 414.833923,534.886475 431.264099,524.782776 
	C439.994324,519.414185 448.681793,513.976135 458.227966,508.048126 
	C458.227966,510.623596 458.210968,512.360779 458.230621,514.097656 
	C458.419159,530.752197 458.411896,547.412537 458.889832,564.058899 
	C459.138245,572.711670 454.887787,577.962402 447.881989,582.006714 
	C426.899231,594.119751 405.996033,606.370544 384.746155,618.756592 
z"/>
<path fill="#FDFDFD" opacity="0.000000" stroke="none" 
	d="
M227.219727,576.550293 
	C225.958771,574.968567 224.158066,573.652527 224.146790,572.321289 
	C223.969376,551.382751 224.022293,530.442261 224.022293,508.761444 
	C236.250732,515.912659 248.044952,522.550903 259.572754,529.623291 
	C271.445618,536.907410 282.982697,544.737427 294.820099,552.081299 
	C300.147644,555.386536 305.723114,558.358826 311.407074,561.008057 
	C320.988342,565.473694 325.984009,572.701782 325.991669,583.298401 
	C326.003937,600.262695 325.994934,617.226990 325.994934,635.314941 
	C292.660645,615.511841 260.086548,596.160339 227.219727,576.550293 
z"/>
<path fill="#FDFDFD" opacity="0.000000" stroke="none" 
	d="
M322.734406,483.740021 
	C329.161469,480.759003 334.722412,476.314453 342.003601,477.031830 
	C344.290039,477.257141 346.840790,477.318176 348.757812,478.380096 
	C365.532227,487.672119 382.190369,497.174011 399.644806,507.044434 
	C391.666290,511.894287 384.478607,516.098938 377.464691,520.575806 
	C371.178131,524.588440 364.765808,528.506470 358.971924,533.166199 
	C348.315369,541.736816 337.615662,541.742004 326.430664,534.671814 
	C313.541290,526.524170 300.670349,518.347351 287.795380,510.176910 
	C286.436279,509.314423 285.104126,508.409485 283.053375,507.059387 
	C296.491730,499.164032 309.453918,491.548431 322.734406,483.740021 
z"/>
<path fill="#FEFFFC" opacity="0.000000" stroke="none" 
	d="
M158.593872,164.615326 
	C163.381241,159.020935 170.181473,157.167206 175.707764,153.380905 
	C180.670074,149.981003 185.301437,146.101593 190.151398,142.532364 
	C191.976837,141.188980 194.170944,140.321198 195.903503,138.883026 
	C198.372360,136.833649 200.570892,134.458588 202.721207,132.380829 
	C207.706207,129.744049 213.275116,127.728760 217.654449,124.226135 
	C222.237106,120.560921 225.074661,119.512344 230.974472,122.828529 
	C244.423309,130.387863 258.752197,136.396011 272.796631,142.875916 
	C281.704926,146.986069 290.776550,150.741730 299.695892,154.828857 
	C301.290161,155.559402 302.498077,157.132980 303.884399,158.317322 
	C302.507111,159.440598 301.288269,160.898605 299.728729,161.636887 
	C276.722107,172.528030 253.718887,183.428833 230.617035,194.115921 
	C199.672729,208.430984 168.644333,222.564331 137.647354,236.765457 
	C136.901672,237.107086 136.100662,237.327988 134.678162,237.836685 
	C134.482773,236.008270 134.160706,234.448196 134.174118,232.891037 
	C134.286026,219.906830 134.567383,206.923096 134.558151,193.939392 
	C134.554779,189.197754 133.905167,184.456589 133.563400,179.889328 
	C137.160019,181.470840 143.323273,176.260239 144.435181,170.228714 
	C144.829666,171.274780 145.217499,172.324188 145.848877,174.032669 
	C150.197342,170.807724 154.241821,167.808243 158.593872,164.615326 
z"/>
<path fill="#FEFFFC" opacity="0.000000" stroke="none" 
	d="
M492.905884,142.168640 
	C493.996674,143.328247 494.906097,144.770737 496.205994,145.604218 
	C510.865204,155.003372 525.892090,163.875702 540.071167,173.944321 
	C543.618713,176.463425 547.483154,180.904907 547.366760,186.955093 
	C547.078613,201.932327 547.303589,216.919434 547.321777,231.902573 
	C547.323914,233.673569 547.322083,235.444565 547.322083,238.170670 
	C490.876404,212.382401 435.285034,186.984436 378.872650,161.211395 
	C379.752106,160.320755 380.771912,158.817108 382.181488,157.939331 
	C389.639893,153.294739 397.293274,148.956299 404.650085,144.160416 
	C406.470734,142.973511 407.112061,140.035751 408.897461,138.719116 
	C410.472565,137.557556 412.877960,137.143219 414.933441,137.093842 
	C418.719788,137.002884 422.248871,137.032272 422.087769,132.870483 
	C423.787903,133.276764 425.723114,134.431351 426.876190,133.897293 
	C432.439056,131.320724 437.677734,128.040710 443.252563,125.494370 
	C448.117157,123.272423 453.276337,121.695389 457.048798,120.298637 
	C464.451294,125.016403 471.372528,129.427444 478.872253,134.173553 
	C483.660828,136.631012 487.870972,138.753403 492.081085,140.875778 
	C492.081085,140.875778 492.028015,140.933167 492.053192,141.221527 
	C492.354218,141.729462 492.630035,141.949051 492.905884,142.168640 
z"/>
<path fill="#FEFFFC" opacity="0.000000" stroke="none" 
	d="
M284.946442,78.049919 
	C292.094727,73.254372 299.006561,68.760674 305.654694,63.905846 
	C307.762115,62.366894 309.166046,59.864616 311.036560,58.300446 
	C313.973541,56.444939 317.349670,55.034607 319.765778,52.651123 
	C327.244446,45.273392 340.751038,42.564693 350.045685,47.991379 
	C366.377136,57.526508 382.393341,67.603432 398.500366,77.520340 
	C405.314453,81.715683 411.938080,86.225044 418.810455,90.319496 
	C423.764008,93.270729 424.280762,93.589279 426.928192,101.125565 
	C415.963531,106.086464 404.915405,110.918076 394.014404,116.061440 
	C381.675385,121.883308 369.355042,127.765656 357.237610,134.029846 
	C346.345612,139.660507 336.088226,139.716141 324.873260,134.225906 
	C304.259094,124.134315 283.179321,114.991882 262.257416,105.533920 
	C260.249176,104.626083 257.986084,104.282051 255.425827,103.558937 
	C252.029083,97.620514 261.469208,96.735291 261.098480,92.865723 
	C264.652161,90.343292 267.684723,87.936958 270.960663,85.927444 
	C275.412262,83.196739 280.050049,80.769455 284.946442,78.049919 
z"/>
<path fill="#FEFFFA" opacity="0.000000" stroke="none" 
	d="
M524.930176,129.563232 
	C524.598816,129.356201 524.267517,129.149170 523.490784,128.652786 
	C522.697693,128.240570 522.349976,128.117706 522.002258,127.994843 
	C522.002258,127.994843 522.000000,128.000000 521.843750,127.744522 
	C521.137268,127.298050 520.586914,127.107048 520.036621,126.916054 
	C520.036621,126.916054 520.013184,126.995224 519.864136,126.678070 
	C513.776306,122.643654 507.837616,118.926384 501.898895,115.209122 
	C501.898895,115.209122 501.940552,115.082283 501.859772,114.836685 
	C501.533234,114.270370 501.250397,114.233521 500.930450,114.480553 
	C500.930450,114.480553 500.820587,114.221199 500.704651,113.870636 
	C496.110413,110.401474 489.603058,108.631439 492.321442,100.865547 
	C496.442657,101.582008 501.549225,97.598450 502.120209,93.067032 
	C515.309021,88.528076 528.518494,84.047722 541.671631,79.407547 
	C544.824463,78.295265 547.252686,77.596924 547.253967,82.290382 
	C547.259277,101.446068 547.304443,120.601746 547.309448,139.757431 
	C547.309570,140.356613 547.030273,140.955841 546.714966,142.223022 
	C541.258972,139.006073 536.151306,135.994522 530.558899,132.662811 
	C529.721069,132.217285 529.367920,132.091919 529.014832,131.966568 
	C529.014832,131.966568 529.004150,132.003220 528.855591,131.736374 
	C528.150146,131.284943 527.593201,131.100342 527.036316,130.915756 
	C527.036316,130.915756 527.016785,130.996185 526.921753,130.726349 
	C526.194519,130.158752 525.562317,129.861008 524.930176,129.563232 
z"/>
<path fill="#FCFEF7" opacity="0.000000" stroke="none" 
	d="
M186.374054,105.387253 
	C169.199860,117.693161 152.311874,129.788834 134.843719,142.300049 
	C134.843719,120.585846 134.843719,99.541557 134.843719,77.641602 
	C154.106842,85.901230 172.466476,93.773453 191.401245,101.892281 
	C189.298538,103.349129 187.979401,104.263077 186.374054,105.387253 
z"/>
<path fill="#8FBE2B" opacity="1.000000" stroke="none" 
	d="
M114.000565,61.000462 
	C114.000565,54.238026 114.000565,47.975418 114.000565,41.712811 
	C114.312973,41.716080 114.625381,41.719353 114.937790,41.722622 
	C114.937790,117.741211 114.937790,193.759796 114.937790,269.778381 
	C114.625381,269.779114 114.312965,269.779846 114.000557,269.780579 
	C114.000557,200.353821 114.000557,130.927048 114.000565,61.000462 
z"/>
<path fill="#8FBE2B" opacity="1.000000" stroke="none" 
	d="
M501.666992,93.021576 
	C501.549225,97.598450 496.442657,101.582008 492.321442,100.865547 
	C489.603058,108.631439 496.110413,110.401474 500.564331,113.858505 
	C491.882812,111.669502 489.483917,109.119339 490.228607,100.835999 
	C490.793488,94.553017 491.424500,92.529312 498.239929,92.945045 
	C499.228180,93.005325 500.222321,92.968170 501.666992,93.021576 
z"/>
<path fill="#8FBE2B" opacity="1.000000" stroke="none" 
	d="
M501.959747,115.543015 
	C507.837616,118.926384 513.776306,122.643654 519.894470,126.650070 
	C511.930298,126.721069 505.947571,122.976425 501.959747,115.543015 
z"/>
<path fill="#8FBE2B" opacity="1.000000" stroke="none" 
	d="
M492.068756,140.529175 
	C487.870972,138.753403 483.660828,136.631012 479.209167,134.267090 
	C480.526978,134.121307 482.086395,134.217056 483.645813,134.312805 
	C482.936676,133.118057 482.227570,131.923325 481.518463,130.728577 
	C485.031128,133.879913 488.543762,137.031235 492.068756,140.529175 
z"/>
<path fill="#8FBE2B" opacity="1.000000" stroke="none" 
	d="
M525.019775,129.832825 
	C525.562317,129.861008 526.194519,130.158752 526.950928,130.696991 
	C526.419922,130.659149 525.764648,130.380783 525.019775,129.832825 
z"/>
<path fill="#8FBE2B" opacity="1.000000" stroke="none" 
	d="
M527.184265,131.184586 
	C527.593201,131.100342 528.150146,131.284943 528.869385,131.722687 
	C528.465271,131.801697 527.898743,131.627548 527.184265,131.184586 
z"/>
<path fill="#8FBE2B" opacity="1.000000" stroke="none" 
	d="
M520.181274,127.184082 
	C520.586914,127.107048 521.137268,127.298050 521.846191,127.742615 
	C521.445190,127.814827 520.885559,127.633469 520.181274,127.184082 
z"/>
<path fill="#8FBE2B" opacity="1.000000" stroke="none" 
	d="
M529.162354,132.217651 
	C529.367920,132.091919 529.721069,132.217285 530.228638,132.586517 
	C530.025330,132.709824 529.667603,132.589279 529.162354,132.217651 
z"/>
<path fill="#8FBE2B" opacity="1.000000" stroke="none" 
	d="
M492.867126,141.914688 
	C492.630035,141.949051 492.354218,141.729462 492.089111,141.236877 
	C492.342712,141.196167 492.585541,141.428452 492.867126,141.914688 
z"/>
<path fill="#8FBE2B" opacity="1.000000" stroke="none" 
	d="
M522.149597,128.239716 
	C522.349976,128.117706 522.697693,128.240570 523.197266,128.604065 
	C522.998413,128.724640 522.647644,128.604599 522.149597,128.239716 
z"/>
<path fill="#8FBE2B" opacity="1.000000" stroke="none" 
	d="
M501.055542,114.607330 
	C501.250397,114.233521 501.533234,114.270370 501.793335,114.830322 
	C501.572479,115.006584 501.363464,114.894775 501.055542,114.607330 
z"/>
</svg>